<mxfile host="app.diagrams.net" agent="Mozilla/5.0 (Windows NT 10.0; Win64; x64) AppleWebKit/537.36 (KHTML, like Gecko) Chrome/131.0.0.0 Safari/537.36" version="25.0.1">
  <diagram name="第 1 页" id="TvgS415JY-QbLHNv6-wU">
    <mxGraphModel dx="2074" dy="1106" grid="0" gridSize="10" guides="1" tooltips="1" connect="1" arrows="1" fold="1" page="1" pageScale="1" pageWidth="827" pageHeight="1169" math="0" shadow="0">
      <root>
        <mxCell id="0" />
        <mxCell id="1" parent="0" />
        <mxCell id="j2Urq3pqd0L95lczZqhr-7" style="edgeStyle=orthogonalEdgeStyle;rounded=0;orthogonalLoop=1;jettySize=auto;html=1;exitX=0.5;exitY=1;exitDx=0;exitDy=0;" edge="1" parent="1" source="j2Urq3pqd0L95lczZqhr-2" target="j2Urq3pqd0L95lczZqhr-3">
          <mxGeometry relative="1" as="geometry" />
        </mxCell>
        <mxCell id="j2Urq3pqd0L95lczZqhr-2" value="&#xa;&lt;span style=&quot;color: rgb(0, 0, 0); font-family: Helvetica; font-size: 12px; font-style: normal; font-variant-ligatures: normal; font-variant-caps: normal; font-weight: 400; letter-spacing: normal; orphans: 2; text-align: center; text-indent: 0px; text-transform: none; widows: 2; word-spacing: 0px; -webkit-text-stroke-width: 0px; white-space: normal; background-color: rgb(251, 251, 251); text-decoration-thickness: initial; text-decoration-style: initial; text-decoration-color: initial; display: inline !important; float: none;&quot;&gt;加载模型/存储动画帧的顶点变换矩阵&lt;/span&gt;&#xa;&#xa;" style="rounded=1;whiteSpace=wrap;html=1;" vertex="1" parent="1">
          <mxGeometry x="243" y="46" width="120" height="60" as="geometry" />
        </mxCell>
        <mxCell id="j2Urq3pqd0L95lczZqhr-8" style="edgeStyle=orthogonalEdgeStyle;rounded=0;orthogonalLoop=1;jettySize=auto;html=1;exitX=0.5;exitY=1;exitDx=0;exitDy=0;" edge="1" parent="1" source="j2Urq3pqd0L95lczZqhr-3" target="j2Urq3pqd0L95lczZqhr-4">
          <mxGeometry relative="1" as="geometry" />
        </mxCell>
        <mxCell id="j2Urq3pqd0L95lczZqhr-3" value="创建缓冲区" style="rounded=1;whiteSpace=wrap;html=1;" vertex="1" parent="1">
          <mxGeometry x="243" y="132" width="120" height="60" as="geometry" />
        </mxCell>
        <mxCell id="j2Urq3pqd0L95lczZqhr-9" style="edgeStyle=orthogonalEdgeStyle;rounded=0;orthogonalLoop=1;jettySize=auto;html=1;exitX=0.5;exitY=1;exitDx=0;exitDy=0;" edge="1" parent="1" source="j2Urq3pqd0L95lczZqhr-4" target="j2Urq3pqd0L95lczZqhr-5">
          <mxGeometry relative="1" as="geometry" />
        </mxCell>
        <mxCell id="j2Urq3pqd0L95lczZqhr-4" value="探头初始声波进入缓冲区" style="rounded=1;whiteSpace=wrap;html=1;" vertex="1" parent="1">
          <mxGeometry x="243" y="218" width="120" height="60" as="geometry" />
        </mxCell>
        <mxCell id="j2Urq3pqd0L95lczZqhr-10" style="edgeStyle=orthogonalEdgeStyle;rounded=0;orthogonalLoop=1;jettySize=auto;html=1;exitX=0.5;exitY=1;exitDx=0;exitDy=0;" edge="1" parent="1" source="j2Urq3pqd0L95lczZqhr-5" target="j2Urq3pqd0L95lczZqhr-6">
          <mxGeometry relative="1" as="geometry" />
        </mxCell>
        <mxCell id="j2Urq3pqd0L95lczZqhr-5" value="根据顶点变换矩阵更新网格" style="rounded=1;whiteSpace=wrap;html=1;" vertex="1" parent="1">
          <mxGeometry x="243" y="318" width="120" height="60" as="geometry" />
        </mxCell>
        <mxCell id="j2Urq3pqd0L95lczZqhr-12" style="edgeStyle=orthogonalEdgeStyle;rounded=0;orthogonalLoop=1;jettySize=auto;html=1;exitX=0.5;exitY=1;exitDx=0;exitDy=0;" edge="1" parent="1" source="j2Urq3pqd0L95lczZqhr-6" target="j2Urq3pqd0L95lczZqhr-11">
          <mxGeometry relative="1" as="geometry" />
        </mxCell>
        <mxCell id="j2Urq3pqd0L95lczZqhr-6" value="缓冲区碰撞检测" style="rounded=1;whiteSpace=wrap;html=1;" vertex="1" parent="1">
          <mxGeometry x="243" y="403" width="120" height="60" as="geometry" />
        </mxCell>
        <mxCell id="j2Urq3pqd0L95lczZqhr-14" style="edgeStyle=orthogonalEdgeStyle;rounded=0;orthogonalLoop=1;jettySize=auto;html=1;exitX=0.5;exitY=1;exitDx=0;exitDy=0;" edge="1" parent="1" source="j2Urq3pqd0L95lczZqhr-11" target="j2Urq3pqd0L95lczZqhr-13">
          <mxGeometry relative="1" as="geometry" />
        </mxCell>
        <mxCell id="j2Urq3pqd0L95lczZqhr-24" style="edgeStyle=orthogonalEdgeStyle;rounded=0;orthogonalLoop=1;jettySize=auto;html=1;exitX=1;exitY=0.5;exitDx=0;exitDy=0;entryX=1;entryY=0.5;entryDx=0;entryDy=0;" edge="1" parent="1" source="j2Urq3pqd0L95lczZqhr-11" target="j2Urq3pqd0L95lczZqhr-17">
          <mxGeometry relative="1" as="geometry">
            <Array as="points">
              <mxPoint x="613" y="532" />
              <mxPoint x="613" y="914" />
            </Array>
          </mxGeometry>
        </mxCell>
        <mxCell id="j2Urq3pqd0L95lczZqhr-11" value="是否击中网格" style="rhombus;whiteSpace=wrap;html=1;" vertex="1" parent="1">
          <mxGeometry x="188" y="492" width="230" height="80" as="geometry" />
        </mxCell>
        <mxCell id="j2Urq3pqd0L95lczZqhr-21" style="edgeStyle=orthogonalEdgeStyle;rounded=0;orthogonalLoop=1;jettySize=auto;html=1;exitX=0.5;exitY=1;exitDx=0;exitDy=0;" edge="1" parent="1" source="j2Urq3pqd0L95lczZqhr-13" target="j2Urq3pqd0L95lczZqhr-15">
          <mxGeometry relative="1" as="geometry" />
        </mxCell>
        <mxCell id="j2Urq3pqd0L95lczZqhr-25" style="edgeStyle=orthogonalEdgeStyle;rounded=0;orthogonalLoop=1;jettySize=auto;html=1;exitX=1;exitY=0.5;exitDx=0;exitDy=0;entryX=1;entryY=0.5;entryDx=0;entryDy=0;" edge="1" parent="1" source="j2Urq3pqd0L95lczZqhr-13" target="j2Urq3pqd0L95lczZqhr-17">
          <mxGeometry relative="1" as="geometry">
            <mxPoint x="366" y="917" as="targetPoint" />
            <Array as="points">
              <mxPoint x="544" y="641" />
              <mxPoint x="544" y="914" />
            </Array>
          </mxGeometry>
        </mxCell>
        <mxCell id="j2Urq3pqd0L95lczZqhr-13" value="声波强度是否大于结束阈值" style="rhombus;whiteSpace=wrap;html=1;" vertex="1" parent="1">
          <mxGeometry x="188" y="601" width="230" height="80" as="geometry" />
        </mxCell>
        <mxCell id="j2Urq3pqd0L95lczZqhr-20" style="edgeStyle=orthogonalEdgeStyle;rounded=0;orthogonalLoop=1;jettySize=auto;html=1;exitX=0.5;exitY=1;exitDx=0;exitDy=0;" edge="1" parent="1" source="j2Urq3pqd0L95lczZqhr-15" target="j2Urq3pqd0L95lczZqhr-16">
          <mxGeometry relative="1" as="geometry" />
        </mxCell>
        <mxCell id="j2Urq3pqd0L95lczZqhr-15" value="存储声波信息" style="rounded=1;whiteSpace=wrap;html=1;" vertex="1" parent="1">
          <mxGeometry x="243" y="714" width="120" height="60" as="geometry" />
        </mxCell>
        <mxCell id="j2Urq3pqd0L95lczZqhr-22" style="edgeStyle=orthogonalEdgeStyle;rounded=0;orthogonalLoop=1;jettySize=auto;html=1;exitX=0.5;exitY=1;exitDx=0;exitDy=0;" edge="1" parent="1" source="j2Urq3pqd0L95lczZqhr-16" target="j2Urq3pqd0L95lczZqhr-17">
          <mxGeometry relative="1" as="geometry" />
        </mxCell>
        <mxCell id="j2Urq3pqd0L95lczZqhr-16" value="生成反射折射声波进入缓冲区" style="rounded=1;whiteSpace=wrap;html=1;" vertex="1" parent="1">
          <mxGeometry x="243" y="801" width="120" height="60" as="geometry" />
        </mxCell>
        <mxCell id="j2Urq3pqd0L95lczZqhr-23" style="edgeStyle=orthogonalEdgeStyle;rounded=0;orthogonalLoop=1;jettySize=auto;html=1;exitX=0.5;exitY=1;exitDx=0;exitDy=0;entryX=0.5;entryY=0;entryDx=0;entryDy=0;" edge="1" parent="1" source="j2Urq3pqd0L95lczZqhr-17" target="j2Urq3pqd0L95lczZqhr-18">
          <mxGeometry relative="1" as="geometry" />
        </mxCell>
        <mxCell id="j2Urq3pqd0L95lczZqhr-17" value="结束这条声波" style="rounded=1;whiteSpace=wrap;html=1;" vertex="1" parent="1">
          <mxGeometry x="243" y="884" width="120" height="60" as="geometry" />
        </mxCell>
        <mxCell id="j2Urq3pqd0L95lczZqhr-18" value="后处理生成超声图像" style="rounded=1;whiteSpace=wrap;html=1;" vertex="1" parent="1">
          <mxGeometry x="243" y="967" width="120" height="60" as="geometry" />
        </mxCell>
        <mxCell id="j2Urq3pqd0L95lczZqhr-26" value="是" style="text;html=1;align=center;verticalAlign=middle;resizable=0;points=[];autosize=1;strokeColor=none;fillColor=none;" vertex="1" parent="1">
          <mxGeometry x="304" y="572" width="30" height="26" as="geometry" />
        </mxCell>
        <mxCell id="j2Urq3pqd0L95lczZqhr-27" value="是" style="text;html=1;align=center;verticalAlign=middle;resizable=0;points=[];autosize=1;strokeColor=none;fillColor=none;" vertex="1" parent="1">
          <mxGeometry x="311" y="681" width="30" height="26" as="geometry" />
        </mxCell>
        <mxCell id="j2Urq3pqd0L95lczZqhr-29" value="否" style="text;html=1;align=center;verticalAlign=middle;resizable=0;points=[];autosize=1;strokeColor=none;fillColor=none;" vertex="1" parent="1">
          <mxGeometry x="491" y="505" width="30" height="26" as="geometry" />
        </mxCell>
        <mxCell id="j2Urq3pqd0L95lczZqhr-30" value="否" style="text;html=1;align=center;verticalAlign=middle;resizable=0;points=[];autosize=1;strokeColor=none;fillColor=none;" vertex="1" parent="1">
          <mxGeometry x="476" y="613" width="30" height="26" as="geometry" />
        </mxCell>
      </root>
    </mxGraphModel>
  </diagram>
</mxfile>
